<svg height="512pt" viewBox="-87 0 512 512.00104" width="512pt" xmlns="http://www.w3.org/2000/svg"><path d="m199.636719 301.410156 57.59375 10.03125c8.957031 1.558594 16.457031 7.660156 19.8125 16.113282l34.230469 86.445312c5.308593 13.414062-1.253907 28.597656-14.671876 33.90625-3.15625 1.253906-6.402343 1.835938-9.613281 1.835938-10.394531 0-20.226562-6.246094-24.292969-16.507813l-28.839843-72.828125h-61.53125" fill="#34abe0"/><path d="m61.398438 296.363281v-40.625c0-39.914062 32.359374-72.277343 72.273437-72.277343 19.957031 0 38.023437 8.089843 51.105469 21.171874 13.082031 13.082032 21.171875 31.148438 21.171875 51.105469v70.589844" fill="#f75772"/><path d="m293.5625 448.886719c-2.183594.585937-4.390625.855469-6.574219.855469-10.394531 0-20.226562-6.246094-24.292969-16.507813l-28.839843-72.828125c7.964843 0 15.125 4.863281 18.058593 12.269531l23.980469 60.558594c3.183594 8.035156 9.902344 13.617187 17.667969 15.652344zm0 0" fill="#1895b7"/><path d="m150.179688 185.355469c-31.960938 7.46875-55.773438 36.140625-55.773438 70.382812v43.183594l-33.007812-2.558594v-40.625c0-39.914062 32.359374-72.277343 72.273437-72.277343 5.683594 0 11.210937.660156 16.507813 1.894531zm0 0" fill="#e0244c"/><path d="m177.210938 55.0625c17.050781 13.082031 28.042968 33.664062 28.042968 56.820312 0 39.539063-32.046875 71.585938-71.585937 71.585938-39.527344 0-71.574219-32.046875-71.574219-71.585938v-50.882812l46.296875-36.277344zm0 0" fill="#ffc48f"/><path d="m149.660156 181.6875c-5.140625 1.167969-10.492187 1.785156-15.988281 1.785156-39.527344 0-71.574219-32.046875-71.574219-71.585937v-50.886719l46.296875-36.277344 20.460938 9.015625-34.785157 27.261719v50.886719c0 34.042969 23.75 62.527343 55.589844 69.800781zm0 0" fill="#e59a5c"/><path d="m238.191406 392.902344c0 65.777344-53.320312 119.097656-119.09375 119.097656-65.777344 0-119.097656-53.320312-119.097656-119.097656 0-65.773438 53.320312-119.09375 119.097656-119.09375 65.773438 0 119.09375 53.320312 119.09375 119.09375zm0 0" fill="#3b3d4c"/><path d="m207.996094 392.902344c0 49.101562-39.800782 88.902344-88.898438 88.902344s-88.902344-39.800782-88.902344-88.902344c0-49.097656 39.804688-88.898438 88.902344-88.898438s88.898438 39.800782 88.898438 88.898438zm0 0" fill="#e6e6e6"/><path d="m135.613281 392.902344c0 9.125-7.394531 16.519531-16.515625 16.519531s-16.519531-7.394531-16.519531-16.519531c0-9.121094 7.398437-16.515625 16.519531-16.515625s16.515625 7.394531 16.515625 16.515625zm0 0" fill="#5c5e70"/><path d="m62.097656 61v50.886719c20.148438 0 36.484375-16.335938 36.484375-36.484375v-18.414063h63.933594c31.472656 0 56.984375-25.515625 56.984375-56.988281h-96.40625c-33.6875 0-60.996094 27.308594-60.996094 61zm0 0" fill="#5c5e70"/><g fill="#3b3d4c"><path d="m162.800781 0c-32.339843 0-58.804687 25.171875-60.863281 56.988281h-3.355469v18.410157c0 10.085937-4.085937 19.195312-10.6875 25.800781-6.605469 6.601562-15.714843 10.6875-25.800781 10.6875v-50.886719c0-33.6875 27.3125-61 61-61zm0 0"/><path d="m145.835938 107.910156c-4.328126 0-7.835938-3.507812-7.835938-7.835937v-16.679688c0-4.328125 3.507812-7.835937 7.835938-7.835937 4.328124 0 7.835937 3.507812 7.835937 7.835937v16.679688c0 4.328125-3.507813 7.835937-7.835937 7.835937zm0 0"/><path d="m175.023438 107.910156c-4.328126 0-7.835938-3.507812-7.835938-7.835937v-16.679688c0-4.328125 3.507812-7.835937 7.835938-7.835937 4.328124 0 7.835937 3.507812 7.835937 7.835937v16.679688c0 4.328125-3.507813 7.835937-7.835937 7.835937zm0 0"/></g><path d="m113.640625 255.738281v53.808594l27.269531 27.269531c10.203125 10.203125 10.203125 26.742188 0 36.941406-5.101562 5.101563-11.785156 7.652344-18.472656 7.652344-6.683594 0-13.367188-2.550781-18.46875-7.652344l-34.921875-34.917968c-4.898437-4.898438-7.648437-11.542969-7.648437-18.472656v-64.628907" fill="#ffc48f"/><path d="m135.488281 377.917969c-4.019531 2.328125-8.535156 3.488281-13.050781 3.488281-6.683594 0-13.371094-2.546875-18.472656-7.648438l-34.917969-34.917968c-4.902344-4.902344-7.648437-11.546875-7.648437-18.476563v-64.625h26.097656v64.625c0 6.929688 2.75 13.574219 7.652344 18.476563l34.917968 34.917968c1.660156 1.664063 3.492188 3.050782 5.421875 4.160157zm0 0" fill="#e59a5c"/><path d="m329.726562 457.582031h-124.164062c-4.328125 0-7.835938-3.511719-7.835938-7.839843 0-4.324219 3.507813-7.835938 7.835938-7.835938h124.164062c4.328126 0 7.835938 3.511719 7.835938 7.835938 0 4.328124-3.507812 7.839843-7.835938 7.839843zm0 0" fill="#3b3d4c"/><path d="m294.949219 480.871094c0 17.191406-13.9375 31.128906-31.128907 31.128906-17.191406 0-31.128906-13.9375-31.128906-31.128906s13.9375-31.128906 31.128906-31.128906c17.191407 0 31.128907 13.9375 31.128907 31.128906zm0 0" fill="#5c5e70"/><path d="m263.816406 488.707031c-3.269531 0-6.269531-2.113281-7.371094-5.195312-1.105468-3.101563-.125-6.640625 2.4375-8.722657 5.445313-4.421874 13.683594.320313 12.6875 7.234376-.546874 3.800781-3.925781 6.683593-7.753906 6.683593zm0 0" fill="#3b3d4c"/></svg>