<?xml version="1.0" encoding="utf-8"?>
<!-- Generator: Adobe Illustrator 24.0.1, SVG Export Plug-In . SVG Version: 6.00 Build 0)  -->
<svg version="1.1" id="Capa_1" xmlns="http://www.w3.org/2000/svg" xmlns:xlink="http://www.w3.org/1999/xlink" x="0px" y="0px"
	 viewBox="0 0 512 512" style="enable-background:new 0 0 512 512;" xml:space="preserve">
<g>
	<g>
		<path d="M510.1,249.9c-4-5.8-100.9-143.3-254.1-143.3C124.6,106.7,7.5,243.3,2.5,249.1c-3.4,4-3.4,9.8,0,13.8
			c4.9,5.8,122,142.4,253.5,142.4s248.6-136.6,253.5-142.4C512.6,259.2,512.9,253.9,510.1,249.9z M256,341.3
			c-47.1,0-85.3-38.3-85.3-85.3s38.3-85.3,85.3-85.3s85.3,38.3,85.3,85.3S303.1,341.3,256,341.3z M256,206l-43.3,75h86.6L256,206z"
			/>
	</g>
</g>
</svg>
