<?xml version="1.0" encoding="utf-8"?>
<!-- Generator: Adobe Illustrator 24.0.1, SVG Export Plug-In . SVG Version: 6.00 Build 0)  -->
<svg version="1.1" id="Capa_1" xmlns="http://www.w3.org/2000/svg" xmlns:xlink="http://www.w3.org/1999/xlink" x="0px" y="0px"
	 viewBox="0 0 512 512" style="enable-background:new 0 0 512 512;" xml:space="preserve">
<style type="text/css">
	.st0{fill:#663325;}
	.st1{fill:#FFF8DC;}
	.st2{fill:#F8E8CD;}
	.st3{fill:#8C4A37;}
	.st4{fill:#FE8598;}
	.st5{fill:#FE5570;}
</style>
<g>
	<g>
		<path class="st0" d="M298.3,107.8c-4.7-6.8-3.1-16.1,3.7-20.9C320.1,74.1,331,53.2,331,31c0-8.3,6.7-15,15-15s15,6.7,15,15
			c0,32-15.6,62.1-41.8,80.4C312.4,116.2,303,114.6,298.3,107.8z"/>
	</g>
	<g>
		<path class="st0" d="M361.1,136.4c-5-6.6-3.7-16,2.9-21c13.4-10.2,22.6-24.9,25.8-41.4c1.6-8.1,9.5-13.4,17.6-11.9
			c8.1,1.6,13.5,9.4,11.9,17.6c-4.6,23.8-17.8,45-37.1,59.6C375.5,144.3,366.1,143,361.1,136.4L361.1,136.4z"/>
	</g>
	<g>
		<path class="st0" d="M410,171.1c-4-7.3-1.4-16.4,5.8-20.4c13.2-7.3,23.7-18.9,29.6-32.8c3.3-7.6,12.1-11.1,19.7-7.9
			c7.6,3.3,11.1,12.1,7.9,19.7c-8.5,20-23.7,36.7-42.6,47.2C423.2,180.9,414,178.3,410,171.1L410,171.1z"/>
	</g>
	<path class="st1" d="M484.8,234.7C483.8,233.3,379.2,91,256,91S28.2,233.3,27.2,234.7L15.5,266c30.3,36.9,112.6,124.2,213.6,138.1
		H256h26.9c101-13.9,183.3-101.2,213.6-138.1L484.8,234.7z"/>
	<path class="st2" d="M496.5,266l-11.7-31.3C483.8,233.3,379.2,91,256,91v313.1h26.9C383.9,390.2,466.2,302.9,496.5,266L496.5,266z"
		/>
	<path class="st3" d="M509.2,232.3C504.6,225.9,394.7,76,256,76S7.4,225.9,2.8,232.3c-3.8,5.2-3.8,12.2,0,17.5
		c0.8,1.1,5.3,7.2,12.7,16.3l11.7-16.3C28.2,248.3,132.8,106,256,106s227.8,142.3,228.8,143.7l11.7,16.3
		c7.4-9.1,11.9-15.2,12.7-16.3C512.9,244.5,512.9,237.5,509.2,232.3L509.2,232.3z"/>
	<path class="st0" d="M484.8,249.7l11.7,16.3c7.4-9.1,11.9-15.2,12.7-16.3c3.8-5.2,3.8-12.2,0-17.5C504.6,225.9,394.7,76,256,76v30
		C379.2,106,483.8,248.3,484.8,249.7L484.8,249.7z"/>
	<circle class="st4" cx="256" cy="241" r="105"/>
	<path class="st5" d="M361,241c0-57.9-47.1-105-105-105v210C313.9,346,361,298.9,361,241z"/>
	<circle class="st3" cx="256" cy="241" r="45"/>
	<path class="st0" d="M301,241c0-24.8-20.2-45-45-45v90C280.8,286,301,265.8,301,241z"/>
</g>
</svg>
