<?xml version="1.0" encoding="iso-8859-1"?>
<!-- Generator: Adobe Illustrator 19.0.0, SVG Export Plug-In . SVG Version: 6.00 Build 0)  -->
<svg xmlns="http://www.w3.org/2000/svg" xmlns:xlink="http://www.w3.org/1999/xlink" version="1.1" id="Layer_1" x="0px" y="0px" viewBox="0 0 489.997 489.997" style="enable-background:new 0 0 489.997 489.997;" xml:space="preserve" width="512" height="512">
<g>
	<path style="fill:#FFD0A6;" d="M489.997,268.468c0,30.517-23.502,55.526-53.386,57.917c-1.559,0.132-3.144,0.198-4.729,0.198   c-4.069,0-8.032-0.41-11.863-1.215H69.979c-3.831,0.806-7.795,1.215-11.864,1.215h-0.04C25.986,326.557,0,300.557,0,268.468   c0-30.253,23.119-55.103,52.659-57.838c1.797-0.185,3.62-0.264,5.456-0.264c2.444,0,4.835,0.145,7.2,0.436h359.366   c2.365-0.291,4.756-0.436,7.2-0.436c3.448,0,6.83,0.304,10.106,0.885C469.268,216.02,489.997,239.826,489.997,268.468z"/>
	<path style="fill:#E8B182;" d="M441.988,211.251v73.612c0,14.294-1.863,28.206-5.377,41.522c-1.559,0.132-3.144,0.198-4.729,0.198   c-4.069,0-8.032-0.41-11.863-1.215H69.979c-3.831,0.806-7.795,1.215-11.864,1.215h-0.04c-3.54-13.383-5.416-27.347-5.416-41.72   V210.63c1.797-0.185,3.62-0.264,5.456-0.264c2.444,0,4.835,0.145,7.2,0.436h359.366c2.365-0.291,4.756-0.436,7.2-0.436   C435.329,210.366,438.712,210.67,441.988,211.251z"/>
	<path style="fill:#D6996B;" d="M458.312,277.718c-2.896,0-5.654-1.687-6.882-4.511c-6.122-14.079-23.948-9.202-24.704-8.987   c-3.985,1.131-8.132-1.183-9.263-5.167c-1.131-3.984,1.182-8.132,5.167-9.263c10.767-3.057,33.52-3.345,42.556,17.435   c1.652,3.799-0.089,8.217-3.887,9.869C460.325,277.517,459.31,277.718,458.312,277.718z"/>
	<path style="fill:#D6996B;" d="M36.342,277.718c-0.998,0-2.013-0.201-2.987-0.624c-3.798-1.651-5.539-6.07-3.887-9.869   c9.036-20.782,31.788-20.492,42.556-17.435c3.985,1.131,6.298,5.278,5.167,9.263c-1.128,3.976-5.26,6.289-9.235,5.175   c-1.932-0.528-18.792-4.686-24.732,8.979C41.996,276.031,39.237,277.718,36.342,277.718z"/>
	<path style="fill:#E8B182;" d="M424.678,184.617v120.775c0,86.426-61.828,158.413-143.67,174.148   c-10.899,2.1-22.168,3.197-33.688,3.197c-97.947,0-177.345-79.398-177.345-177.345V184.617   c0-97.946,79.398-177.358,177.345-177.358c11.52,0,22.789,1.097,33.688,3.197c35.472,6.817,67.178,24.203,91.724,48.749   C404.822,91.308,424.678,135.644,424.678,184.617z"/>
	<path style="fill:#FFD0A6;" d="M424.678,184.617v120.775c0,86.426-61.828,158.413-143.67,174.148   c-81.842-15.735-143.67-87.721-143.67-174.148V184.617c0-86.426,61.828-158.426,143.67-174.161   c35.472,6.817,67.178,24.203,91.724,48.749C404.822,91.308,424.678,135.644,424.678,184.617z"/>
	<path style="fill:#5B5B68;" d="M424.68,184.617v26.184c-209.963-0.264-279.757-86.136-279.757-86.136   c0,35.67-35.67,73.308-74.946,86.136v-26.184c0-97.946,79.398-177.358,177.345-177.358c11.52,0,22.789,1.097,33.688,3.197   c35.472,6.817,67.178,24.203,91.724,48.749C404.824,91.308,424.68,135.644,424.68,184.617z"/>
	<path style="fill:#40404C;" d="M281.004,10.457c-62.713,12.062-113.667,57.151-134.079,116.455   c-1.361-1.44-2.008-2.246-2.008-2.246c0,35.67-35.67,73.308-74.946,86.136v-26.184c0-97.946,79.398-177.358,177.345-177.358   C258.836,7.259,270.105,8.356,281.004,10.457z"/>
	<path style="fill:#E4E4EF;" d="M192.58,354.818c-0.77,19.78-12.76,19.31-13.53,39.09c-0.77,19.78,11.23,20.24,10.46,40.02   c-0.7,17.95-10.63,19.22-13.05,34.08c-22.81-9.95-43.12-24.55-59.73-42.61l0.01-0.01c3.53-6.41,8.48-8.28,10.58-19.21   c2.8-14.56-5.06-16.08-2.26-30.64c2.81-14.56,10.66-13.05,13.46-27.61c2.8-14.56-5.05-16.07-2.25-30.63   c2.8-14.56,10.66-13.05,13.46-27.61v-3.03c5.35,3.5,11.75,5.54,18.62,5.54c11.05,0,20.86-5.26,27.08-13.4   c-1.83,16.7-12.57,17.31-13.3,36C181.36,334.578,193.35,335.038,192.58,354.818z"/>
	<path style="fill:#F95C5C;" d="M276.696,391.006c-1.919,0-3.839-0.732-5.303-2.197c-13.27-13.27-34.862-13.27-48.131,0   c-2.929,2.929-7.678,2.929-10.606,0c-2.929-2.929-2.929-7.678,0-10.606c19.119-19.118,50.227-19.118,69.344,0   c2.929,2.929,2.929,7.678,0,10.606C280.535,390.273,278.615,391.006,276.696,391.006z"/>
	<path style="fill:#E4E4EF;" d="M297.314,354.818c0.77,19.78,12.76,19.31,13.53,39.09c0.77,19.78-11.23,20.24-10.46,40.02   c0.7,17.95,10.63,19.22,13.05,34.08c22.81-9.95,43.12-24.55,59.73-42.61l-0.01-0.01c-3.53-6.41-8.48-8.28-10.58-19.21   c-2.8-14.56,5.06-16.08,2.26-30.64c-2.81-14.56-10.66-13.05-13.46-27.61c-2.8-14.56,5.05-16.07,2.25-30.63   c-2.8-14.56-10.66-13.05-13.46-27.61v-3.03c-5.35,3.5-11.75,5.54-18.62,5.54c-11.05,0-20.86-5.26-27.08-13.4   c1.83,16.7,12.57,17.31,13.3,36C308.534,334.578,296.544,335.038,297.314,354.818z"/>
	<g>
		<path style="fill:#D6996B;" d="M168.357,299.698c-13.409,0-26.064-6.526-33.853-17.458c-2.404-3.373-1.618-8.056,1.756-10.46    c3.373-2.403,8.056-1.617,10.46,1.756c4.98,6.989,13.069,11.162,21.637,11.162c14.637,0,26.545-11.909,26.545-26.546    c0-4.142,3.358-7.5,7.5-7.5s7.5,3.358,7.5,7.5C209.903,281.06,191.266,299.698,168.357,299.698z"/>
		<path style="fill:#D6996B;" d="M321.537,299.698c-22.908,0-41.545-18.637-41.545-41.546c0-4.142,3.358-7.5,7.5-7.5    s7.5,3.358,7.5,7.5c0,14.637,11.908,26.546,26.545,26.546c8.568,0,16.656-4.173,21.637-11.163c2.404-3.373,7.087-4.16,10.46-1.755    c3.373,2.404,4.159,7.087,1.755,10.46C347.6,293.171,334.944,299.698,321.537,299.698z"/>
	</g>
	<path style="fill:#F95C5C;" d="M279.54,326.85c0,2.135-0.416,4.196-1.206,6.149c-8.925-7.366-22.152-6.875-30.49,1.473   c-8.348-8.349-21.576-8.84-30.49-1.473c-0.79-1.953-1.206-4.014-1.206-6.149c0-12.395,14.188-39.479,31.696-39.479   C265.352,287.371,279.54,314.456,279.54,326.85z"/>
	<path style="fill:#D11C1C;" d="M247.843,341.973c-1.989,0-3.897-0.79-5.303-2.197c-5.575-5.575-14.348-6.003-20.409-0.995   c-0.392,0.324-0.761,0.659-1.098,0.995c-2.929,2.929-7.678,2.929-10.606,0c-2.929-2.929-2.929-7.678,0-10.606   c0.669-0.669,1.392-1.326,2.147-1.95c10.269-8.486,24.445-9.136,35.267-2.298c10.813-6.836,24.989-6.189,35.267,2.294   c0.76,0.628,1.482,1.285,2.152,1.954c2.929,2.929,2.929,7.678,0,10.606c-2.929,2.929-7.678,2.929-10.606,0   c-0.336-0.336-0.706-0.671-1.099-0.996c-6.064-5.005-14.837-4.58-20.405,0.993c-1.406,1.408-3.314,2.2-5.304,2.2   C247.845,341.973,247.844,341.973,247.843,341.973z"/>
</g>















</svg>
