<?xml version="1.0" encoding="utf-8"?>
<!-- Generator: Adobe Illustrator 24.0.1, SVG Export Plug-In . SVG Version: 6.00 Build 0)  -->
<svg version="1.1" id="Capa_1" xmlns="http://www.w3.org/2000/svg" xmlns:xlink="http://www.w3.org/1999/xlink" x="0px" y="0px"
	 viewBox="0 0 512 512" style="enable-background:new 0 0 512 512;" xml:space="preserve">
<style type="text/css">
	.st0{fill:#663325;}
	.st1{fill:#FFF8DC;}
	
		.st2{clip-path:url(#SVGID_2_);fill:#FFFFFF;stroke:#8C4A37;stroke-width:8;stroke-linecap:round;stroke-linejoin:round;stroke-miterlimit:10;}
	.st3{clip-path:url(#SVGID_4_);}
	
		.st4{clip-path:url(#SVGID_6_);fill:#FFFFFF;stroke:#663325;stroke-width:8;stroke-linecap:round;stroke-linejoin:round;stroke-miterlimit:10;}
	.st5{fill:#F8E8CD;}
	.st6{clip-path:url(#SVGID_8_);}
	
		.st7{clip-path:url(#SVGID_10_);fill:#FFFFFF;stroke:#663325;stroke-width:8;stroke-linecap:round;stroke-linejoin:round;stroke-miterlimit:10;}
	.st8{fill:#8C4A37;}
	.st9{fill:#FE8598;}
	.st10{fill:#FE5570;}
</style>
<g>
	<g>
		<path class="st0" d="M298.3,107.8c-4.7-6.8-3.1-16.1,3.7-20.9C320.1,74.1,331,53.2,331,31c0-8.3,6.7-15,15-15s15,6.7,15,15
			c0,32-15.6,62.1-41.8,80.4C312.4,116.2,303,114.6,298.3,107.8z"/>
	</g>
	<g>
		<path class="st0" d="M361.1,136.4c-5-6.6-3.7-16,2.9-21c13.4-10.2,22.6-24.9,25.8-41.4c1.6-8.1,9.5-13.4,17.6-11.9
			c8.1,1.6,13.5,9.4,11.9,17.6c-4.6,23.8-17.8,45-37.1,59.6C375.5,144.3,366.1,143,361.1,136.4L361.1,136.4z"/>
	</g>
	<g>
		<path class="st0" d="M410,171.1c-4-7.3-1.4-16.4,5.8-20.4c13.2-7.3,23.7-18.9,29.6-32.8c3.3-7.6,12.1-11.1,19.7-7.9
			c7.6,3.3,11.1,12.1,7.9,19.7c-8.5,20-23.7,36.7-42.6,47.2C423.2,180.9,414,178.3,410,171.1L410,171.1z"/>
	</g>
	<path class="st1" d="M484.8,234.7C483.8,233.3,379.2,91,256,91S28.2,233.3,27.2,234.7L15.5,266c30.3,36.9,112.6,124.2,213.6,138.1
		H256h26.9c101-13.9,183.3-101.2,213.6-138.1L484.8,234.7z"/>
	<g>
		<defs>
			<path id="SVGID_1_" d="M285.4,241c-1-1.4,93.8-150-29.4-150S28.2,233.3,27.2,234.7L15.5,266c30.3,36.9,112.6,124.2,213.6,138.1
				H256h26.9c2.5-42.5-4.4-67.9-4.4-115.4L285.4,241z"/>
		</defs>
		<clipPath id="SVGID_2_">
			<use xlink:href="#SVGID_1_"  style="overflow:visible;"/>
		</clipPath>
		<path class="st2" d="M495,292.1c-13-25.5-64.7-25.2-115.4,0.7c-33.1,16.9-57.6,40.5-67,62c-14.1-4.3-32-2.7-48.6,5.8
			c-7.4,3.8-13.8,8.5-19.1,13.9c-3.6-21.4-28-37.9-57.5-37.9c-13.9,0-26.6,3.7-36.6,9.8c0.1-1.1,0.1-2.3,0.1-3.5
			c0-24-19.5-43.4-43.4-43.4s-43.4,19.5-43.4,43.4s19.5,43.4,43.4,43.4c8,0,15.5-2.2,21.9-5.9c0.3,23.8,26.1,43.1,58,43.1
			c16,0,30.6-4.9,41.1-12.8c0.1,5.2,1.3,10.3,3.7,15c10.9,21.4,42.9,26.9,71.4,12.3c16.3-8.3,27.9-21.4,32.9-35.1
			c22.9,5.3,56.8-0.6,90.3-17.7C477.5,359.3,508.1,317.6,495,292.1z"/>
		<use xlink:href="#SVGID_1_"  style="overflow:visible;fill:none;stroke:#FFF8DC;stroke-width:5;stroke-miterlimit:10;"/>
	</g>
	<g>
		<defs>
			<path id="SVGID_3_" d="M496.5,266l-11.7-31.3C483.8,233.3,379.2,91,256,91v313.1h26.9C383.9,390.2,466.2,302.9,496.5,266
				L496.5,266z"/>
		</defs>
		<clipPath id="SVGID_4_">
			<use xlink:href="#SVGID_3_"  style="overflow:visible;"/>
		</clipPath>
		<g class="st3">
			<defs>
				<path id="SVGID_5_" d="M484.8,234.7C483.8,233.3,379.2,91,256,91S28.2,233.3,27.2,234.7L15.5,266
					c30.3,36.9,112.6,124.2,213.6,138.1H256h26.9c101-13.9,183.3-101.2,213.6-138.1L484.8,234.7z"/>
			</defs>
			<clipPath id="SVGID_6_">
				<use xlink:href="#SVGID_5_"  style="overflow:visible;"/>
			</clipPath>
			<path class="st4" d="M495,292.1c-13-25.5-64.7-25.2-115.4,0.7c-33.1,16.9-57.6,40.5-67,62c-14.1-4.3-32-2.7-48.6,5.8
				c-7.4,3.8-13.8,8.5-19.1,13.9c-3.6-21.4-28-37.9-57.5-37.9c-13.9,0-26.6,3.7-36.6,9.8c0.1-1.1,0.1-2.3,0.1-3.5
				c0-24-19.5-43.4-43.4-43.4s-43.4,19.5-43.4,43.4s19.5,43.4,43.4,43.4c8,0,15.5-2.2,21.9-5.9c0.3,23.8,26.1,43.1,58,43.1
				c16,0,30.6-4.9,41.1-12.8c0.1,5.2,1.3,10.3,3.7,15c10.9,21.4,42.9,26.9,71.4,12.3c16.3-8.3,27.9-21.4,32.9-35.1
				c22.9,5.3,56.8-0.6,90.3-17.7C477.5,359.3,508.1,317.6,495,292.1z"/>
		</g>
		<use xlink:href="#SVGID_3_"  style="overflow:visible;fill:none;stroke:#F8E8CD;stroke-width:5;stroke-miterlimit:10;"/>
	</g>
	<path class="st5" d="M496.5,266l-11.7-31.3C483.8,233.3,379.2,91,256,91v313.1h26.9C383.9,390.2,466.2,302.9,496.5,266L496.5,266z"
		/>
	<g>
		<defs>
			<path id="SVGID_7_" d="M496.5,266l-11.7-31.3C483.8,233.3,379.2,91,256,91v313.1h26.9C383.9,390.2,466.2,302.9,496.5,266
				L496.5,266z"/>
		</defs>
		<clipPath id="SVGID_8_">
			<use xlink:href="#SVGID_7_"  style="overflow:visible;"/>
		</clipPath>
		<g class="st6">
			<defs>
				<path id="SVGID_9_" d="M484.8,234.7C483.8,233.3,379.2,91,256,91S28.2,233.3,27.2,234.7L15.5,266
					c30.3,36.9,112.6,124.2,213.6,138.1H256h26.9c101-13.9,183.3-101.2,213.6-138.1L484.8,234.7z"/>
			</defs>
			<clipPath id="SVGID_10_">
				<use xlink:href="#SVGID_9_"  style="overflow:visible;"/>
			</clipPath>
			<path class="st7" d="M495,292.1c-13-25.5-64.7-25.2-115.4,0.7c-33.1,16.9-57.6,40.5-67,62c-14.1-4.3-32-2.7-48.6,5.8
				c-7.4,3.8-13.8,8.5-19.1,13.9c-3.6-21.4-28-37.9-57.5-37.9c-13.9,0-26.6,3.7-36.6,9.8c0.1-1.1,0.1-2.3,0.1-3.5
				c0-24-19.5-43.4-43.4-43.4s-43.4,19.5-43.4,43.4s19.5,43.4,43.4,43.4c8,0,15.5-2.2,21.9-5.9c0.3,23.8,26.1,43.1,58,43.1
				c16,0,30.6-4.9,41.1-12.8c0.1,5.2,1.3,10.3,3.7,15c10.9,21.4,42.9,26.9,71.4,12.3c16.3-8.3,27.9-21.4,32.9-35.1
				c22.9,5.3,56.8-0.6,90.3-17.7C477.5,359.3,508.1,317.6,495,292.1z"/>
		</g>
		<use xlink:href="#SVGID_7_"  style="overflow:visible;fill:none;stroke:#F8E8CD;stroke-width:5;stroke-miterlimit:10;"/>
	</g>
	<path class="st8" d="M509.2,232.3C504.6,225.9,394.7,76,256,76S7.4,225.9,2.8,232.3c-3.8,5.2-3.8,12.2,0,17.5
		c0.8,1.1,5.3,7.2,12.7,16.3l11.7-16.3C28.2,248.3,132.8,106,256,106s227.8,142.3,228.8,143.7l11.7,16.3
		c7.4-9.1,11.9-15.2,12.7-16.3C512.9,244.5,512.9,237.5,509.2,232.3L509.2,232.3z"/>
	<path class="st0" d="M484.8,249.7l11.7,16.3c7.4-9.1,11.9-15.2,12.7-16.3c3.8-5.2,3.8-12.2,0-17.5C504.6,225.9,394.7,76,256,76v30
		C379.2,106,483.8,248.3,484.8,249.7L484.8,249.7z"/>
	<circle class="st9" cx="256" cy="241" r="105"/>
	<path class="st10" d="M361,241c0-57.9-47.1-105-105-105v210C313.9,346,361,298.9,361,241z"/>
	<circle class="st8" cx="256" cy="241" r="45"/>
	<path class="st0" d="M301,241c0-24.8-20.2-45-45-45v90C280.8,286,301,265.8,301,241z"/>
</g>
</svg>
