<svg id="Capa_1" enable-background="new 0 0 512 512" height="512" viewBox="0 0 512 512" width="512" xmlns="http://www.w3.org/2000/svg"><g><g><path d="m298.261 107.772c-4.746-6.797-3.105-16.143 3.677-20.903 18.193-12.744 29.062-33.633 29.062-55.869 0-8.291 6.709-15 15-15s15 6.709 15 15c0 32.007-15.645 62.08-41.836 80.449-6.781 4.736-16.121 3.114-20.903-3.677z" fill="#663325"/></g><g><path d="m361.073 136.425c-5.01-6.606-3.706-16.011 2.886-21.021 13.447-10.181 22.603-24.888 25.796-41.396 1.567-8.115 9.507-13.418 17.563-11.88 8.145 1.567 13.462 9.434 11.88 17.563-4.6 23.789-17.769 44.956-37.104 59.619-6.619 5.009-16.027 3.699-21.021-2.885z" fill="#663325"/></g><g><path d="m410.014 171.083c-4.014-7.251-1.392-16.377 5.845-20.405 13.169-7.295 23.672-18.94 29.619-32.783 3.252-7.632 12.144-11.147 19.688-7.881 7.617 3.267 11.147 12.085 7.881 19.688-8.54 19.951-23.687 36.709-42.627 47.227-7.268 4-16.394 1.384-20.406-5.846z" fill="#663325"/></g><path d="m484.813 234.73c-1.041-1.42-105.649-143.73-228.813-143.73s-227.772 142.31-228.812 143.745l-11.664 31.28c30.282 36.868 112.599 124.191 213.582 138.1h26.894 26.895c100.988-13.909 183.309-101.241 213.587-138.105z" fill="#fff8dc"/><path d="m496.482 266.02-11.669-31.289c-1.041-1.421-105.649-143.731-228.813-143.731v313.125h26.895c100.988-13.909 183.308-101.241 213.587-138.105z" fill="#f8e8cd"/><path d="m296.664 386.767-27.627-48.633c-2.666-4.688-7.852-7.031-13.037-7.031s-10.371 2.344-13.037 7.031l-27.495 48.398c-16.875 29.502-19.468 34.029-19.468 49.468 0 33.091 26.909 60 60 60s60-26.909 60-60c0-15.513-3.325-21.328-19.336-49.233z" fill="#9ed0ff"/><path d="m316 436c0-15.513-3.325-21.328-19.336-49.233l-27.627-48.633c-2.666-4.688-7.852-7.031-13.037-7.031v164.897c33.091 0 60-26.909 60-60z" fill="#73bcff"/><path d="m509.188 232.27c-4.571-6.387-114.526-156.27-253.188-156.27s-248.617 149.883-253.187 156.27c-3.75 5.215-3.75 12.246 0 17.461.789 1.104 5.264 7.229 12.711 16.295l11.664-16.28c1.04-1.436 105.648-143.746 228.812-143.746s227.772 142.31 228.813 143.73l11.669 16.289c7.443-9.062 11.917-15.185 12.706-16.289 3.75-5.214 3.75-12.246 0-17.46z" fill="#8c4a37"/><path d="m484.813 249.73 11.669 16.289c7.443-9.062 11.917-15.185 12.706-16.289 3.75-5.215 3.75-12.246 0-17.461-4.571-6.386-114.526-156.269-253.188-156.269v30c123.164 0 227.772 142.31 228.813 143.73z" fill="#663325"/><circle cx="256" cy="241" fill="#fe8598" r="105"/><path d="m361 241c0-57.891-47.109-105-105-105v210c57.891 0 105-47.109 105-105z" fill="#fe5570"/><circle cx="256" cy="241" fill="#8c4a37" r="45"/><path d="m301 241c0-24.814-20.186-45-45-45v90c24.814 0 45-20.186 45-45z" fill="#663325"/></g></svg>