<?xml version="1.0" encoding="iso-8859-1"?>
<!-- Generator: Adobe Illustrator 21.0.0, SVG Export Plug-In . SVG Version: 6.00 Build 0)  -->
<svg xmlns="http://www.w3.org/2000/svg" xmlns:xlink="http://www.w3.org/1999/xlink" version="1.1" id="Capa_1" x="0px" y="0px" viewBox="0 0 503.412 503.412" style="enable-background:new 0 0 503.412 503.412;" xml:space="preserve" width="512" height="512">
<g>
	<path style="fill:#FFF4F1;" d="M365.138,0c-55.631,0-100.728,45.097-100.728,100.728c0,16.3,3.876,31.692,10.75,45.314   l-13.271,49.527l45.62-12.224c16.329,11.412,36.195,18.111,57.629,18.111c55.631,0,100.728-45.098,100.728-100.728   C465.866,45.098,420.768,0,365.138,0z"/>
	<path style="fill:#ECEDEF;" d="M365.138,0c-3.889,0-7.725,0.228-11.5,0.657c50.214,5.708,89.229,48.33,89.229,100.071   c0,51.743-39.016,94.365-89.232,100.071c3.776,0.43,7.613,0.657,11.504,0.657c55.631,0,100.729-45.098,100.729-100.728   C465.866,45.098,420.768,0,365.138,0z"/>
	<path style="fill:#ECEDEF;" d="M381.375,110.069V38.142H348.9v71.927c-9.767,5.627-16.347,16.164-16.347,28.246   c0,17.996,14.589,32.584,32.584,32.584c17.996,0,32.585-14.589,32.585-32.584C397.722,126.233,391.142,115.696,381.375,110.069z"/>
	<path style="fill:#F85E49;" d="M381.375,110.069V86.267H348.9v23.802c-9.767,5.627-16.347,16.164-16.347,28.246   c0,17.996,14.589,32.584,32.584,32.584c17.996,0,32.585-14.589,32.585-32.584C397.722,126.233,391.142,115.696,381.375,110.069z"/>
	<path style="fill:#E13C2A;" d="M381.375,110.069V86.267h-23v23.802c9.767,5.627,16.347,16.164,16.347,28.246   c0,13.947-8.765,25.841-21.085,30.49c3.577,1.35,7.451,2.094,11.5,2.094c17.996,0,32.585-14.589,32.585-32.584   C397.722,126.233,391.142,115.696,381.375,110.069z"/>
	<rect x="116.521" y="323.341" style="fill:#C39776;" width="38.4" height="88.131"/>
	<path style="fill:#C39776;" d="M135.201,344.87h-7.188c-38.566,0-70.12-31.554-70.12-70.12v-56.58   c0-38.566,31.554-70.12,70.12-70.12h7.188c38.566,0,70.12,31.554,70.12,70.12v56.58C205.322,313.316,173.768,344.87,135.201,344.87   z"/>
	<path style="fill:#B2D0F3;" d="M135.201,148.05h-7.188c-38.566,0-70.12,31.554-70.12,70.12v29.222h124.429l11.891-10l11.109,10   V218.17C205.322,179.604,173.768,148.05,135.201,148.05z"/>
	<path style="fill:#AB6D3E;" d="M135.201,148.05h-7.188c-2.673,0-5.308,0.166-7.906,0.462c34.879,3.961,62.215,33.766,62.215,69.659   v56.58c0,35.893-27.336,65.698-62.215,69.659c2.598,0.295,5.233,0.461,7.906,0.461h7.188c38.566,0,70.12-31.554,70.12-70.12v-56.58   C205.322,179.604,173.768,148.05,135.201,148.05z"/>
	<path style="fill:#4DBEDF;" d="M233.896,491.501V462.13c0-50.457-41.283-91.741-91.74-91.741h-12.869   c-50.457,0-91.741,41.283-91.741,91.741v29.311c0,6.611,5.359,11.97,11.97,11.97h172.468   C228.563,503.412,233.896,498.079,233.896,491.501z"/>
	<path style="fill:#6EA7E9;" d="M135.201,148.05h-7.188c-2.673,0-5.308,0.166-7.906,0.462c34.879,3.961,62.215,33.766,62.215,69.659   v29.222h23V218.17C205.322,179.604,173.768,148.05,135.201,148.05z"/>
	<path style="fill:#1BACD6;" d="M142.155,370.389h-12.869c-1.7,0-3.388,0.051-5.066,0.143c48.125,2.652,86.675,42.84,86.675,91.597   v41.282h11.089c6.578,0,11.911-5.333,11.911-11.911V462.13C233.896,411.673,192.612,370.389,142.155,370.389z"/>
	<path style="fill:#646464;" d="M57.893,155.918v52.826h135.819c14.646,0,26.52-11.315,26.52-25.273v-32.096   c0-5.488-4.449-9.938-9.938-9.938H72.373C64.376,141.438,57.893,147.921,57.893,155.918z"/>
	<path style="fill:#3B3B3D;" d="M197.232,141.438v42.033c0,13.958-11.873,25.273-26.52,25.273h23   c14.646,0,26.52-11.315,26.52-25.273v-32.096c0-5.488-4.449-9.937-9.937-9.937H197.232z"/>
</g>















</svg>
