<svg id="Capa_1" enable-background="new 0 0 512 512" height="512" viewBox="0 0 512 512" width="512" xmlns="http://www.w3.org/2000/svg"><g><path d="m352.094 183.871-13.77-111.2c-5.171-41.426-40.561-72.671-82.324-72.671s-77.153 31.245-82.324 72.671l-13.77 111.2c-40.019 9.536-68.906 45.103-68.906 87.129 0 49.629 40.371 90 90 90 15.615 0 31.025-4.072 44.561-11.777h30.439 30.469c13.491 7.705 28.886 11.777 44.531 11.777 49.629 0 90-40.371 90-90 0-42.026-28.887-77.593-68.906-87.129z" fill="#ffcebf"/><path d="m331 361c49.629 0 90-40.371 90-90 0-42.026-28.887-77.593-68.906-87.129l-13.77-111.2c-5.171-41.426-40.561-72.671-82.324-72.671v349.223h30.469c13.491 7.705 28.886 11.777 44.531 11.777z" fill="#ffbfab"/><path d="m346 271c-24.565 0-45.879 16.641-51.826 40.474-3.56 14.194-22.236 20.669-38.101 20.669-.024 0-.049-.007-.073-.007-15.906-.018-34.62-6.475-38.174-20.662-5.947-23.833-27.261-40.474-51.826-40.474-8.291 0-15 6.709-15 15s6.709 15 15 15c10.767 0 20.112 7.295 22.734 17.739 6.469 25.952 33.508 43.372 67.266 43.398.026 0 .048.005.073.005 33.706 0 60.718-17.446 67.192-43.403 2.623-10.444 11.968-17.739 22.735-17.739 8.291 0 15-6.709 15-15s-6.709-15-15-15z" fill="#ffbfab"/><path d="m323.266 318.739c2.622-10.444 11.967-17.739 22.734-17.739 8.291 0 15-6.709 15-15s-6.709-15-15-15c-24.565 0-45.879 16.641-51.826 40.474-3.56 14.194-22.236 20.669-38.101 20.669-.024 0-.049-.007-.073-.007v30.002c.026 0 .048.005.073.005 33.706 0 60.718-17.447 67.193-43.404z" fill="#ffa78f"/><path d="m223.627 424.179-14.575-25.562c-2.652-4.702-7.647-7.617-13.052-7.617s-10.386 2.915-13.052 7.617l-14.458 25.356c-16.172 28.272-17.49 30.587-17.49 42.027 0 24.814 20.186 46 45 46s45-21.186 45-46c0-11.528-1.978-14.971-17.373-41.821z" fill="#9ed0ff"/><path d="m241 466c0-11.528-1.978-14.971-17.373-41.821l-14.575-25.562c-2.652-4.702-7.647-7.617-13.052-7.617v121c24.814 0 45-21.186 45-46z" fill="#73bcff"/><path d="m343.627 424.179-14.575-25.562c-2.652-4.702-7.647-7.617-13.052-7.617s-10.386 2.915-13.052 7.617l-14.458 25.356c-16.172 28.272-17.49 30.587-17.49 42.027 0 24.814 20.186 46 45 46s45-21.186 45-46c0-11.528-1.978-14.971-17.373-41.821z" fill="#9ed0ff"/><path d="m361 466c0-11.528-1.978-14.971-17.373-41.821l-14.575-25.562c-2.652-4.702-7.647-7.617-13.052-7.617v121c24.814 0 45-21.186 45-46z" fill="#73bcff"/></g></svg>