<?xml version="1.0" encoding="utf-8"?>
<!-- Generator: Adobe Illustrator 24.0.1, SVG Export Plug-In . SVG Version: 6.00 Build 0)  -->
<svg version="1.1" id="Capa_1" xmlns="http://www.w3.org/2000/svg" xmlns:xlink="http://www.w3.org/1999/xlink" x="0px" y="0px"
	 viewBox="0 0 512 512" style="enable-background:new 0 0 512 512;" xml:space="preserve">
<g>
	<path d="M494.5,469.4c-6,5.8-12.1,11.5-18.1,17.4c-2.8,2.7-5.2,5.8-7.5,8.4C317.9,344.1,167.5,193.7,17.5,43.6
		c8.2-8.2,16.8-16.8,25.3-25.3c63.5,63.5,127.4,127.4,191.3,191.3c0.4-0.3,0.8-0.5,1.2-0.8c0.3-4.6,0.5-9.1,1.1-13.7
		c3.5-27.2,27-47.9,54.5-48.5c13.8-0.3,27.5,0.2,39.7,7.8c17.9,11.2,27.5,27.3,27.6,48.4c0.2,41.8,0,83.5,0.2,125.3
		c0,2.2,0.9,5,2.4,6.5c44,44.2,88,88.2,132.1,132.3c0.5,0.5,1.2,0.9,1.8,1.3C494.5,468.8,494.5,469.1,494.5,469.4z M320,294.4
		c0.4-0.9,0.6-1.2,0.6-1.4c0-30.5,0.1-61-0.1-91.5c-0.1-9.3-8.1-16.8-17.6-17.3c-3.6-0.2-7.2-0.1-10.7,0
		c-11.2,0.1-19.2,7.9-19.3,19.1c-0.1,13.7-0.1,27.4,0,41.1c0,1.5,0.6,3.5,1.6,4.5C289.6,264,304.7,279.1,320,294.4z"/>
	<path d="M339.4,72.9c0,31-25.2,56.2-56.1,56.1c-30.8,0-56.2-25.5-56.1-56.3c0.1-30.6,25.4-55.8,56-55.9
		C314.2,16.8,339.4,41.9,339.4,72.9z M302,73c0-10.4-8.3-18.7-18.6-18.7c-10.2,0-18.7,8.4-18.8,18.6c0,10.2,8.5,18.7,18.7,18.7
		C293.7,91.7,302,83.3,302,73z"/>
	<path d="M273,385.1c-12.7,0-24.6,0-37,0c0-22.5,0-45,0-68c1.3,1.1,2.3,1.8,3.2,2.7c10.4,10.3,20.8,20.6,30.9,31.1
		c1.5,1.6,2.6,4.2,2.7,6.4C273.1,366.5,273,375.6,273,385.1z"/>
	<path d="M171.5,317.2c-3.4-11.6-6.7-23.2-10.2-35.2c13.8-3.9,27.4-6.5,41.9-6.4c0,12.5,0,24.6,0,36.6
		C192.8,313.8,182.5,315.4,171.5,317.2z"/>
	<path d="M70.2,403.7c1.9-14.2,3.8-27.9,5.7-42.2c13,3.9,24.7,7.3,36.1,10.7c-1.4,10.7-2.7,21-4.1,31.5
		C95.9,403.7,83.7,403.7,70.2,403.7z"/>
	<path d="M126.8,297c6.5,10.7,12.8,21,18.9,31c-7.5,6.8-14.8,13.4-22.4,20.3c-9.4-6.8-19.2-14-29.3-21.4
		C103,314.7,113.7,305,126.8,297z"/>
</g>
</svg>
