<svg height="511pt" viewBox="-36 0 511 511.99963" width="511pt" xmlns="http://www.w3.org/2000/svg"><path d="m147.734375 160.089844c-2.535156 0-5.015625-1.265625-6.464844-3.574219-2.234375-3.566406-1.152343-8.269531 2.414063-10.503906l18.082031-11.328125c3.566406-2.234375 8.269531-1.152344 10.5 2.414062 2.234375 3.566406 1.15625 8.269532-2.410156 10.503906l-18.082031 11.324219c-1.257813.789063-2.65625 1.164063-4.039063 1.164063zm0 0" fill="#c97f4c"/><path d="m211.777344 378.835938c-4.210938 0-7.621094 3.410156-7.621094 7.621093v117.921875c0 4.210938 3.414062 7.621094 7.621094 7.621094 4.207031 0 7.621094-3.414062 7.621094-7.621094v-117.921875c0-4.210937-3.414063-7.621093-7.621094-7.621093zm0 0" fill="#89b4c9"/><path d="m348.0625 378.835938c-4.210938 0-7.621094 3.410156-7.621094 7.621093v117.921875c0 4.210938 3.410156 7.621094 7.621094 7.621094 4.207031 0 7.617188-3.414062 7.617188-7.621094v-117.921875c.003906-4.210937-3.410157-7.621093-7.617188-7.621093zm0 0" fill="#89b4c9"/><path d="m76.785156 149.675781-12.113281 87.957031-21.039063 30.464844h-29.109374l-14.023438-30.464844v-130.519531c0-7.4375 3.808594-14.367187 10.089844-18.371093l2.792968-1.777344c12.933594-8.230469 29.859376-6.269532 40.570313 4.691406l4.378906 4.480469c13.851563 14.1875 20.625 33.824219 18.453125 53.539062zm0 0" fill="#25bed3"/><path d="m32.230469 165.9375-24.1875-24.292969c-2.722657 9.070313.066406 18.894531 7.148437 25.183594l52.742188 46.828125 2.769531-20.101562zm0 0" fill="#11a6bf"/><path d="m37.316406 84.390625c-15.777344-2.117187-26.847656-16.621094-24.730468-32.398437l3.625-27c2.117187-15.777344 16.621093-26.851563 32.398437-24.734376 15.777344 2.121094 26.851563 16.625 24.734375 32.402344l-3.625 27c-2.117188 15.777344-16.625 26.847656-32.402344 24.730469zm0 0" fill="#fedfc5"/><path d="m48.609375.257812c-5.199219-.695312-10.253906.046876-14.78125 1.910157 11.832031 4.855469 19.378906 17.222656 17.601563 30.492187l-3.625 27c-1.421876 10.578125-8.414063 19.035156-17.621094 22.824219 2.234375.917969 4.625 1.570313 7.132812 1.90625 15.777344 2.117187 30.285156-8.953125 32.402344-24.730469l3.625-27c2.117188-15.777344-8.957031-30.285156-24.734375-32.402344zm0 0" fill="#fecbaa"/><path d="m60.40625 140.578125 14.265625 15.105469c4.050781 4.289062 10.074219 6.105468 15.820313 4.773437l42.320312-9.832031c8.792969-2.042969 17.941406 1.527344 23.03125 8.984375 1.867188 2.738281.765625 6.5-2.285156 7.796875l-68.464844 29.097656c-8.082031 3.4375-17.425781 1.839844-23.90625-4.085937l-28.957031-26.480469zm0 0" fill="#fedfc5"/><path d="m64.671875 237.632812-33.355469 242.269532-16.292968 4.328125-14.523438-4.328125v-242.269532zm0 0" fill="#7f7ce8"/><path d="m281.851562 302.6875-36.445312-7.40625-30.132812 7.40625v23.59375c0 18.855469 15.289062 34.140625 34.144531 34.140625l66.480469 5.617187 51.53125-5.617187 27.28125 119.480469h26.425781l-11.089844-123.871094c-1.800781-22.132812-18.902344-39.953125-40.941406-42.652344zm0 0" fill="#fd82ac"/><path d="m215.273438 302.6875v-130.523438c0-7.445312 3.804687-14.371093 10.085937-18.371093l2.796875-1.78125c12.929688-8.226563 29.859375-6.265625 40.570312 4.695312l4.378907 4.484375c13.851562 14.183594 20.621093 33.824219 18.445312 53.53125l-9.699219 87.964844zm0 0" fill="#badb47"/><path d="m251.855469 151.183594c-15.777344-2.117188-26.851563-16.625-24.730469-32.402344l3.855469-28.738281c2.121093-15.777344 16.625-26.851563 32.402343-24.734375 15.777344 2.117187 26.851563 16.625 24.730469 32.402344l-3.855469 28.742187c-2.117187 15.777344-16.625 26.847656-32.402343 24.730469zm0 0" fill="#fedfc5"/><path d="m253.105469 214.464844v-27.5625c6.769531 4.171875 10.890625 11.554687 10.890625 19.503906v52.558594l-10.890625-9.667969zm0 0" fill="#82c11f"/><path d="m263.382812 65.308594c-4.476562-.601563-8.851562-.136719-12.871093 1.191406 12.941406 4.246094 21.433593 17.226562 19.554687 31.210938l-3.855468 28.738281c-1.519532 11.300781-9.390626 20.183593-19.53125 23.542969 1.65625.542968 3.386718.949218 5.175781 1.191406 15.777343 2.117187 30.285156-8.957032 32.402343-24.734375l3.855469-28.738281c2.117188-15.777344-8.953125-30.285157-24.730469-32.402344zm0 0" fill="#fecbaa"/><path d="m253.101562 214.464844-.253906 21.882812c-.457031 6.054688 2.335938 11.894532 7.335938 15.34375l36.8125 25.378906c7.652344 5.273438 11.277344 14.707032 9.132812 23.746094-.789062 3.320313-4.414062 5.089844-7.515625 3.667969l-69.597656-31.914063c-8.21875-3.765624-13.480469-11.984374-13.460937-21.019531l-.179688-40.832031" fill="#fedfc5"/><path d="m296.996094 277.070312-36.8125-25.378906c-5-3.449218-7.792969-9.289062-7.335938-15.34375l.253906-21.882812-15.242187-1.511719.605469 30.484375c-.453125 6.054688 2.339844 11.894531 7.339844 15.34375l36.8125 25.378906c5.871093 4.046875 9.359374 10.546875 9.699218 17.4375l6.296875 2.886719c3.101563 1.421875 6.726563-.347656 7.515625-3.664063 2.144532-9.042968-1.480468-18.476562-9.132812-23.75zm0 0" fill="#fecbaa"/><path d="m.503906 498.265625v-18.363281h30.8125l21.714844 17.765625c3.046875 2.492187 1.285156 7.425781-2.652344 7.425781h-43.050781c-3.769531 0-6.824219-3.058594-6.824219-6.828125zm0 0" fill="#4f7693"/><path d="m352.117188 386.457031h-144.398438c-8.453125 0-15.308594-6.855469-15.308594-15.308593v-7.796876c0-1.617187 1.3125-2.929687 2.925782-2.929687h172.09375v10.726563c0 8.453124-6.855469 15.308593-15.3125 15.308593zm0 0" fill="#e4f4ff"/><path d="m195.335938 360.421875c-1.613282 0-2.925782 1.3125-2.925782 2.929687v7.796876c0 1.261718.167969 2.484374.457032 3.65625.519531-.816407 1.429687-1.363282 2.46875-1.363282h171.902343c.113281-.75.191407-1.511718.191407-2.292968v-10.726563zm0 0" fill="#bddff4"/><path d="m394.710938 479.472656v16.582032c0 4.75 4.082031 8.601562 9.117187 8.601562h29.589844c5.425781 0 8.121093-6.203125 4.257812-9.796875l-16.539062-15.386719zm0 0" fill="#4f7693"/><path d="m192.386719 146.359375-12.167969 7.625c-2.070312 1.292969-4.800781.667969-6.09375-1.402344l-14.984375-23.914062c-1.296875-2.066407-.667969-4.796875 1.398437-6.09375l12.167969-7.621094c2.070313-1.296875 4.796875-.671875 6.09375 1.398437l14.984375 23.914063c1.296875 2.070313.667969 4.796875-1.398437 6.09375zm0 0" fill="#e29c6d"/><g fill="#e4f4ff"><path d="m165.871094 192.707031c-1.109375 0-2.214844-.046875-3.320313-.148437-4.191406-.375-7.285156-4.078125-6.90625-8.269532.375-4.195312 4.085938-7.285156 8.269531-6.910156 3.257813.296875 6.550782-.140625 9.53125-1.261718 5.910157-2.21875 9.332032-6.570313 10.84375-8.96875 2.25-3.554688 6.957032-4.617188 10.515626-2.371094 3.558593 2.25 4.617187 6.957031 2.371093 10.515625-2.535156 4.011719-8.296875 11.308593-18.375 15.09375-4.085937 1.535156-8.5 2.320312-12.929687 2.320312zm0 0"/><path d="m205.066406 121.082031c-.230468 0-.460937-.007812-.691406-.03125-4.191406-.375-7.285156-4.078125-6.90625-8.269531.292969-3.257812-.144531-6.550781-1.265625-9.53125-2.21875-5.910156-6.570313-9.332031-8.964844-10.84375-3.558593-2.25-4.621093-6.957031-2.371093-10.515625 2.246093-3.554687 6.953124-4.617187 10.511718-2.371094 4.011719 2.535157 11.308594 8.296875 15.09375 18.375 1.917969 5.105469 2.671875 10.726563 2.175782 16.25-.359376 3.960938-3.683594 6.9375-7.582032 6.9375zm0 0"/></g></svg>