<?xml version="1.0" encoding="iso-8859-1"?>
<!-- Generator: Adobe Illustrator 19.0.0, SVG Export Plug-In . SVG Version: 6.00 Build 0)  -->
<svg xmlns="http://www.w3.org/2000/svg" xmlns:xlink="http://www.w3.org/1999/xlink" version="1.1" id="Layer_1" x="0px" y="0px" viewBox="0 0 512 512" style="enable-background:new 0 0 512 512;" xml:space="preserve" width="512" height="512">
<path d="M256,120c-33.084,0-60-26.916-60-60s26.916-60,60-60s60,26.916,60,60S289.084,120,256,120z M256,40  c-11.028,0-20,8.972-20,20s8.972,20,20,20s20-8.972,20-20S267.028,40,256,40z M238.265,274.375  c2.968-10.639-3.251-21.67-13.89-24.639l-49.138-13.709l26.652-46.907c3.546-6.242,10.209-10.12,17.389-10.12h73.443  c7.18,0,13.843,3.877,17.39,10.12l26.562,46.749l-50.915,13.83c-10.66,2.896-16.954,13.884-14.059,24.543  c2.896,10.659,13.882,16.954,24.544,14.058l54.983-14.936c0.477-0.129,0.948-0.277,1.414-0.441  c10.571-3.731,18.885-11.895,22.807-22.397c3.922-10.502,2.994-22.116-2.544-31.862L344.89,169.36  C334.25,150.633,314.26,139,292.722,139h-73.443c-21.538,0-41.528,11.633-52.167,30.359l-28.096,49.447  c-5.511,9.699-6.455,21.264-2.592,31.729c3.863,10.465,12.097,18.642,22.588,22.433c0.469,0.169,0.943,0.321,1.423,0.455  l53.19,14.84c1.799,0.502,3.606,0.741,5.386,0.741C227.762,289.004,235.798,283.216,238.265,274.375z M316,492V346  c0-11.046-8.954-20-20-20s-20,8.954-20,20v146c0,11.046,8.954,20,20,20S316,503.046,316,492z M236,492V346c0-11.046-8.954-20-20-20  s-20,8.954-20,20v146c0,11.046,8.954,20,20,20S236,503.046,236,492z M433,398.801c8.108,7.058,22,1.359,22-9.473v-39.884l57,34.472  v-54l-70.308-39.683c-11.486-6.483-25.527,1.934-25.527,15.258v28.512l-63.74-23.143c-0.782-0.36-1.499-0.524-2.147-0.528  c-2.692-0.013-4.29,2.337-4.278,5.348c0.008,2.115,0.852,4.349,2.309,5.822L433,398.801z M163.691,321.501  c1.458-1.473,2.301-3.707,2.309-5.822c0.012-3.011-1.586-5.361-4.278-5.348c-0.648,0.003-1.365,0.167-2.147,0.528l-63.74,23.143  V305.49c0-13.325-14.041-21.741-25.527-15.258L0,329.915l0,54l57-34.472v39.884c0,10.833,13.892,16.532,22,9.473L163.691,321.501z"/>















</svg>
