<svg height="511pt" viewBox="0 -5 511.99969 511" width="511pt" xmlns="http://www.w3.org/2000/svg"><path d="m110.996094 500.03125c-53.6875-35.074219-88.601563-102.910156-83.824219-179.113281 2.101563-33.417969-3.832031-68.296875-17.152344-100.867188-43.460937-106.132812 62.914063-212.546875 156.605469-155.660156 17.675781 10.71875 39.636719 10.71875 57.3125-.003906 50.101562-30.417969 107.074219-14.65625 140.507812 28.90625 7.320313 6.964843 37.4375 39.8125 24.304688 98.191406-1.699219 10.070313-4.625 20.082031-8.695312 29.761719-13.292969 31.550781-19.3125 66.644531-17.410157 101.488281 3.804688 71.148437-27.089843 138.226563-80.628906 175.074219-4.972656 3.421875-6.527344 2.644531-35.769531 2.644531-8.285156 0-15-6.71875-15-15v-104.554687c0-50.289063-72.789063-50.925782-72.789063-.875v107.183593c0 8.222657-6.617187 14.910157-14.835937 15-25.792969.28125-27.691406 1.042969-32.625-2.175781zm0 0" fill="#eee"/><path d="m364.445312 93.292969c-32.582031-42.457031-89.316406-59.996094-140.507812-28.910157-8.609375 5.222657-18.242188 7.902344-27.902344 8.03125v269.910157c19.949219.730469 35.210938 18.335937 35.210938 38.570312v104.558594c0 8.28125 6.710937 15 15 15 29.203125 0 30.8125.78125 35.769531-2.648437 53.539063-36.839844 84.429687-103.921876 80.628906-175.070313-1.898437-34.839844 4.113281-69.941406 17.410157-101.492187 4.070312-9.679688 6.992187-19.6875 8.691406-29.757813 13.140625-58.378906-16.980469-91.230469-24.300782-98.191406zm0 0" fill="#ddd"/><path d="m372.941406 239.042969-22.230468-77.183594-77.183594-22.230469c-14.40625-4.152344-14.425782-24.671875 0-28.828125l77.183594-22.234375 22.230468-77.183594c4.148438-14.394531 24.671875-14.433593 28.828125 0l22.234375 77.183594 77.183594 22.234375c14.402344 4.148438 14.425781 24.671875 0 28.828125l-77.183594 22.230469-22.234375 77.183594c-4.144531 14.398437-24.667969 14.4375-28.828125 0zm0 0" fill="#fecb74"/><path d="m501.1875 110.804688-77.179688-22.242188-22.230468-77.179688c-2.214844-7.644531-9.734375-11.3398432-14.742188-10.839843v249.339843c4.980469.511719 12.523438-3.171874 14.742188-10.839843l22.230468-77.179688 77.179688-22.238281c14.417969-4.148438 14.414062-24.671875 0-28.820312zm0 0" fill="#ffa039"/></svg>