<svg height="511pt" viewBox="0 -31 511.99915 511" width="511pt" xmlns="http://www.w3.org/2000/svg"><path d="m298.375 448.972656c-8.285156 0-15-6.714844-15-15v-91.242187c0-16.902344-12.882812-30.964844-28.476562-30.585938-15.078126.316407-27.34375 13.703125-27.34375 29.84375v91.984375c0 8.285156-6.714844 15-15 15-21.476563 0-23.742188.695313-28.566407-2.515625-45.535156-30.3125-75.027343-89.328125-70.996093-154.882812 1.738281-28.140625-3.164063-57.511719-14.171876-84.945313-37.234374-92.652344 54.472657-184.539062 134.472657-135.042968 13.894531 8.589843 31.164062 8.589843 45.066406-.003907 80.441406-49.769531 172.367187 43.296875 134.050781 136.082031-10.980468 26.570313-15.953125 56.125-14.382812 85.472657 3.238281 61.660156-23.5625 121.753906-68.277344 153.117187-5.015625 3.515625-7.359375 2.71875-31.375 2.71875zm0 0" fill="#eee"/><path d="m278.359375 71.589844c-7.191406 4.449218-15.289063 6.589844-23.359375 6.417968v234.136719c15.707031-.3125 28.378906 13.878907 28.378906 30.589844v91.238281c0 8.28125 6.710938 15 15 15 24.015625 0 26.363282.796875 31.371094-2.71875 44.71875-31.359375 71.519531-91.457031 68.277344-153.117187-1.570313-29.351563 3.402344-58.898438 14.378906-85.46875 38.328125-92.8125-53.625-185.855469-134.046875-136.078125zm0 0" fill="#dedede"/><path d="m83.5625 48.558594-19.648438-23.417969c-5.328124-6.34375-4.5-15.804687 1.847657-21.128906 6.347656-5.324219 15.804687-4.5 21.132812 1.847656l19.648438 23.417969c5.324219 6.34375 4.496093 15.808594-1.847657 21.132812-6.347656 5.320313-15.808593 4.496094-21.132812-1.851562zm0 0" fill="#fecb74"/><path d="m33.976562 115.757812-26.472656-15.285156c-7.175781-4.140625-9.632812-13.3125-5.492187-20.488281s13.3125-9.636719 20.488281-5.492187l26.476562 15.285156c7.171876 4.140625 9.632813 13.316406 5.488282 20.492187-4.136719 7.167969-13.308594 9.632813-20.488282 5.488281zm0 0" fill="#fecb74"/><g fill="#ffa039"><path d="m407.304688 50.40625c-6.34375-5.324219-7.171876-14.785156-1.847657-21.128906l19.648438-23.417969c5.324219-6.347656 14.785156-7.175781 21.132812-1.847656 6.34375 5.320312 7.171875 14.785156 1.847657 21.128906l-19.648438 23.417969c-5.320312 6.34375-14.785156 7.175781-21.132812 1.847656zm0 0"/><path d="m457.535156 110.269531c-4.144531-7.175781-1.683594-16.351562 5.488282-20.492187l26.472656-15.285156c7.175781-4.144532 16.347656-1.683594 20.492187 5.492187 4.140625 7.175781 1.683594 16.347656-5.492187 20.488281l-26.472656 15.285156c-7.171876 4.140626-16.347657 1.6875-20.488282-5.488281zm0 0"/></g></svg>