<svg height="512pt" viewBox="0 -16 512 512" width="512pt" xmlns="http://www.w3.org/2000/svg"><path d="m446.84375 297.464844c-22.039062 37.328125-31.300781 72.433594-70.964844 87.007812 28.101563-35.566406 42.640625-82.296875 40.011719-130.144531-1.789063-31.945313 3.875-64.128906 16.382813-93.066406 42.765624-99.035157-58.816407-199.785157-148.871094-146.503907-16.59375 9.808594-37.210938 9.808594-53.792969.003907-89.625-53.027344-190.878906 46.550781-149.347656 145.382812 12.539062 29.875 18.121093 61.859375 16.144531 92.492188-3.269531 50.855469 12.996094 97.945312 41.730469 132.546875-41.382813-14.121094-50.574219-49.769532-72.980469-87.71875-18.105469-30.667969-65.15625-17.847656-65.15625 17.753906v150.410156c0 8.285156 6.714844 15 15 15h482c8.285156 0 15-6.714844 15-15v-150.410156c0-35.613281-47.058594-48.410156-65.15625-17.753906zm-338.921875-148.9375c-30.308594-72.121094 41.519531-146.339844 106.414063-107.941406 26.007812 15.371093 58.320312 15.371093 84.335937-.003907 65.546875-38.78125 137.105469 36.890625 106.0625 108.78125-14.347656 33.191407-20.847656 70.066407-18.800781 106.628907 2.976562 54.148437-20.472656 106.738281-60.003906 135.375h-6.128907v-83.238282c0-35.28125-28.683593-65.203125-65.007812-64.476562-34.320313.691406-62.402344 28.644531-62.402344 63.667968v84.046876h-3.496094c-42.265625-28.851563-66.152343-80.839844-62.550781-136.800782 2.273438-35.238281-4.09375-71.902344-18.421875-106.039062zm374.078125 302.101562h-452v-135.410156c0-3.152344 1.992188-4.355469 3.660156-4.8125 1.691406-.460938 4.042969-.4375 5.664063 2.308594 27.734375 46.976562 41.839843 108.78125 144.675781 108.78125 4.460938 0 18.914062-.101563 23.390625-.128906 8.285156 0 15-6.714844 15-15v-99.046876c0-18.203124 14.808594-33.308593 33.007813-33.671874 18.78125-.402344 34.402343 15.226562 34.402343 34.476562v98.242188c0 8.285156 6.714844 15 15 15h23.199219c102.753906 0 116.847656-61.511719 144.675781-108.652344 1.621094-2.746094 3.972657-2.769532 5.664063-2.308594 1.667968.457031 3.660156 1.660156 3.660156 4.8125zm0 0"/><path d="m187 225.363281c0 8.285157-6.714844 15-15 15s-15-6.714843-15-15c0-8.28125 6.714844-15 15-15s15 6.71875 15 15zm0 0"/><path d="m353 230.363281c0 8.285157-6.714844 15-15 15s-15-6.714843-15-15c0-8.28125 6.714844-15 15-15s15 6.71875 15 15zm0 0"/><path d="m259 169.363281c0 8.285157-6.714844 15-15 15s-15-6.714843-15-15c0-8.28125 6.714844-15 15-15s15 6.71875 15 15zm0 0"/></svg>