<svg height="512pt" viewBox="0 -16 512 512" width="512pt" xmlns="http://www.w3.org/2000/svg"><path d="m497 480.625h-482c-8.285156 0-15-6.714844-15-15v-150.410156c0-35.613282 47.054688-48.414063 65.15625-17.757813 29.148438 49.371094 35.796875 94.167969 118.84375 94.167969h144c83.042969 0 89.695312-44.792969 118.84375-94.167969 18.105469-30.664062 65.15625-17.839843 65.15625 17.757813v150.410156c0 8.285156-6.714844 15-15 15zm0 0" fill="#e51b8a"/><path d="m446.839844 297.460938c-22.160156 37.539062-31.320313 72.4375-70.960938 87-24.515625 9.015624-44.816406 7.160156-120.878906 7.160156v89h242c8.28125 0 15-6.710938 15-15v-150.402344c0-35.597656-47.050781-48.429688-65.160156-17.757812zm0 0" fill="#c80060"/><path d="m304.800781 421.363281c-8.285156 0-15-6.71875-15-15v-98.242187c0-19.269532-15.636719-34.882813-34.402343-34.480469-18.199219.367187-33.007813 15.472656-33.007813 33.675781v99.046875c0 8.28125-6.714844 15-15 15-24.5625 0-26.292969.675781-31.042969-2.347656-51.082031-32.519531-84.507812-95.375-79.941406-166.382813 1.980469-30.636718-3.605469-62.617187-16.140625-92.492187-41.558594-98.890625 59.777344-198.375 149.34375-145.382813 16.582031 9.800782 37.199219 9.804688 53.792969-.003906 90.007812-53.257812 191.65625 47.425782 148.871094 146.5-12.507813 28.941406-18.171876 61.121094-16.382813 93.070313 3.753906 68.363281-27.511719 131.375-76.898437 164.496093-4.902344 3.289063-6.535157 2.542969-34.191407 2.542969zm0 0" fill="#e6e6e6"/><path d="m283.398438 14.75c-8.738282 5.167969-18.597657 7.609375-28.398438 7.328125v251.570313c21.230469 0 34.800781 16.746093 34.800781 34.472656v98.238281c0 8.289063 6.71875 15 15 15 27.660157 0 29.289063.75 34.199219-2.539063 48.9375-32.816406 80.671875-95.578124 76.890625-164.5-1.789063-31.941406 3.878906-64.128906 16.378906-93.0625 42.789063-99.078124-58.859375-199.757812-148.871093-146.507812zm0 0" fill="#dedede"/><g fill="#cecece"><path d="m187 225.359375c0 8.285156-6.714844 15-15 15s-15-6.714844-15-15 6.714844-15 15-15 15 6.714844 15 15zm0 0"/><path d="m353 230.359375c0 8.285156-6.714844 15-15 15s-15-6.714844-15-15 6.714844-15 15-15 15 6.714844 15 15zm0 0"/><path d="m256 169.359375c0 8.285156-6.714844 15-15 15s-15-6.714844-15-15 6.714844-15 15-15 15 6.714844 15 15zm0 0"/></g></svg>