<?xml version="1.0" encoding="utf-8"?>
<!-- Generator: Adobe Illustrator 24.0.1, SVG Export Plug-In . SVG Version: 6.00 Build 0)  -->
<svg version="1.1" id="Layer_1" xmlns="http://www.w3.org/2000/svg" xmlns:xlink="http://www.w3.org/1999/xlink" x="0px" y="0px"
	 viewBox="0 0 511 511" style="enable-background:new 0 0 511 511;" xml:space="preserve">
<style type="text/css">
	.st0{fill:#EEEEEE;}
	.st1{fill:#DDDDDD;}
	.st2{fill:#A50A0A;}
</style>
<g>
	<path class="st0" d="M160.7,504.3C100.9,465.2,62,389.5,67.3,304.6c2.3-37.3-4.3-76.1-19.1-112.4C-0.3,73.8,118.3-44.8,222.7,18.6
		c19.7,11.9,44.2,11.9,63.9,0C342.5-15.3,406,2.3,443.3,50.9c8.2,7.8,41.7,44.4,27.1,109.5c-1.9,11.2-5.2,22.4-9.7,33.2
		c-14.8,35.2-21.5,74.3-19.4,113.1c4.2,79.3-30.2,154.1-89.9,195.2c-5.5,3.8-7.3,2.9-39.9,2.9c-9.2,0-16.7-7.5-16.7-16.7V371.5
		c0-56.1-81.1-56.8-81.1-1V490c0,9.2-7.4,16.6-16.5,16.7C168.3,507,166.2,507.8,160.7,504.3z"/>
	<path class="st1" d="M443.3,50.9C406.9,3.5,343.7-16,286.6,18.6c-9.6,5.8-20.3,8.8-31.1,9v300.9c22.2,0.8,39.3,20.4,39.3,43V488
		c0,9.2,7.5,16.7,16.7,16.7c32.6,0,34.3,0.9,39.9-3c59.7-41.1,94.1-115.8,89.9-195.2c-2.1-38.8,4.6-78,19.4-113.1
		c4.5-10.8,7.8-21.9,9.7-33.2C485,95.2,451.4,58.6,443.3,50.9z"/>
</g>
<path class="st2" d="M398.5,404.5L398.5,404.5c-49.7,0-90.3-40.7-90.3-90.3v-27.5c0-49.7,40.7-180.2,90.3-180.2h0
	c49.7,0,90.3,130.5,90.3,180.2v27.5C488.9,363.9,448.2,404.5,398.5,404.5z"/>
</svg>
