<?xml version="1.0" encoding="iso-8859-1"?>
<!-- Generator: Adobe Illustrator 19.0.0, SVG Export Plug-In . SVG Version: 6.00 Build 0)  -->
<svg version="1.1" id="Layer_1" xmlns="http://www.w3.org/2000/svg" xmlns:xlink="http://www.w3.org/1999/xlink" x="0px" y="0px"
	 viewBox="0 0 512 512" style="enable-background:new 0 0 512 512;" xml:space="preserve">
<path style="fill:#E0E0E3;" d="M455.83,255.84c-22.81,33.56-37.7,71.38-43.04,109.37c-0.3,2.11-0.59,4.26-0.87,6.46
	c-5.16,39.98-12.75,72.07-22.56,95.37c-11.76,27.91-26.93,42.99-45.09,44.81c-1.03,0.1-2.05,0.15-3.07,0.15
	c-17.87,0-32.8-16.04-44.42-47.74c-8.6-23.44-15.37-54.85-19.08-88.44c-2.07-18.78-6.92-33.99-14.01-43.98
	c-2.54-3.58-6.22-3.96-7.69-3.96c-1.46,0-5.15,0.38-7.69,3.96c-7.09,9.99-11.94,25.2-14.01,43.98c-3.71,33.59-10.48,65-19.07,88.44
	C203.61,495.96,188.67,512,170.8,512c-1.02,0-2.04-0.05-3.07-0.15c-18.16-1.82-33.33-16.9-45.09-44.81
	c-9.81-23.3-17.4-55.39-22.56-95.37c-0.29-2.28-0.59-4.51-0.9-6.7c-5.35-37.92-20.2-75.62-42.94-109.02
	C22.21,205.94,12.91,144.06,31.37,90.42c14.04-40.8,42.73-70.81,78.7-82.35c68.31-21.9,124.48,6.26,145.93,19.75
	c21.45-13.49,77.62-41.65,145.93-19.75c35.96,11.53,64.64,41.53,78.68,82.3C499.08,143.98,489.82,205.84,455.83,255.84z"/>
<path style="fill:#C7C5CC;" d="M455.83,255.84c-22.81,33.56-37.7,71.38-43.04,109.37c-0.3,2.11-0.59,4.26-0.87,6.46
	c-5.16,39.98-12.75,72.07-22.56,95.37c-11.76,27.91-26.93,42.99-45.09,44.81c-1.03,0.1-2.05,0.15-3.07,0.15
	c-17.87,0-32.8-16.04-44.42-47.74c-8.6-23.44-15.37-54.85-19.08-88.44c-2.07-18.78-6.92-33.99-14.01-43.98
	c-2.54-3.58-6.22-3.96-7.69-3.96V27.82c0.32-0.2,0.66-0.41,1-0.62c6.76-4.18,16.62-9.6,28.97-14.5
	c28.14-11.16,69.21-19.62,115.96-4.63c35.96,11.53,64.64,41.53,78.68,82.3C499.08,143.98,489.82,205.84,455.83,255.84z"/>
<path style="fill:#57555C;" d="M299.7,129.52l34.49,22.5l-16.38,25.12l-57.51-37.5l39.87-74.71L257,27.2
	c6.76-4.18,16.62-9.6,28.97-14.5l51.86,45.37L299.7,129.52z"/>
<g>
</g>
<g>
</g>
<g>
</g>
<g>
</g>
<g>
</g>
<g>
</g>
<g>
</g>
<g>
</g>
<g>
</g>
<g>
</g>
<g>
</g>
<g>
</g>
<g>
</g>
<g>
</g>
<g>
</g>
</svg>
