<svg height="512pt" viewBox="-31 0 512 512.00106" width="512pt" xmlns="http://www.w3.org/2000/svg"><path d="m284.945312 511.914062c-8.28125 0-15-6.710937-15-14.992187v-120.980469c0-25.742187-20.9375-46.484375-45.929687-45.9375-24.300781.488282-44.070313 20.652344-44.070313 44.945313v121.972656c0 8.28125-6.714843 14.992187-15 14.992187-30.617187 0-31.605468.691407-36.375-2.34375-63.148437-40.1875-102.316406-117.167968-96.875-201.738281 2.472657-38.261719-4.5-78.1875-20.148437-115.472656-49.871094-118.628906 71.5-238.273437 178.996094-174.695313 21.527343 12.71875 48.277343 12.71875 69.8125-.003906 107.929687-63.835937 229.824219 57.066406 178.433593 176.042969-15.625 36.128906-22.699218 76.300781-20.464843 116.183594 4.597656 83.714843-33.976563 159.789062-93.191407 199.488281-4.96875 3.328125-5.949218 2.539062-40.1875 2.539062zm0 0" fill="#eee"/><path d="m260.355469 17.664062c-11.210938 6.625-23.839844 9.804688-36.410157 9.515626v302.824218c27.28125 0 46 21.835938 46 45.933594v120.988281c0 8.277344 6.722657 14.996094 15 14.996094 34.242188 0 35.222657.78125 40.191407-2.550781 59.210937-39.695313 97.789062-115.769532 93.191406-199.488282-2.242187-39.878906 4.839844-80.054687 20.457031-116.179687 51.390625-118.980469-70.5-239.878906-178.429687-176.039063zm0 0" fill="#dedede"/><path d="m289.945312 242.054688c-41.355468 0-75-33.632813-75-74.972657 0-41.34375 33.644532-74.976562 75-74.976562 41.355469 0 75 33.632812 75 74.976562 0 41.339844-33.644531 74.972657-75 74.972657zm0 0" fill="#ddd"/><path d="m289.945312 92.105469c-28.480468 0-53.300781 15.957031-66 39.386719v71.183593c12.710938 23.433594 37.53125 39.378907 66 39.378907 41.351563 0 75-33.640626 75-74.976563 0-41.332031-33.648437-74.972656-75-74.972656zm0 0" fill="#cecece"/><g fill="#dedede"><path d="m134.945312 180.074219c-24.8125 0-45-20.179688-45-44.984375 0-24.800782 20.1875-44.980469 45-44.980469s45 20.179687 45 44.980469c0 24.804687-20.1875 44.984375-45 44.984375zm0 0"/><path d="m179.945312 225.0625c0-8.285156-6.714843-14.996094-15-14.996094-8.285156 0-15 6.710938-15 14.996094 0 8.28125 6.714844 14.992188 15 14.992188 8.285157 0 15-6.710938 15-14.992188zm0 0"/></g></svg>