<svg height="512" viewBox="0 0 512 512" width="512" xmlns="http://www.w3.org/2000/svg"><path d="m285.8 357.752a14.463 14.463 0 0 1 -14.463-14.463v-49.537a16 16 0 0 0 -16-16 16 16 0 0 0 -16 16v49.537a14.463 14.463 0 0 1 -14.463 14.463 14.463 14.463 0 0 1 -13.294-8.766l-11.241-26.229a244.774 244.774 0 0 1 -13.96-43.313l-1.392-6.267a184.5 184.5 0 0 1 1.55-86.476 24.658 24.658 0 0 1 23.863-18.449 24.657 24.657 0 0 1 20.285 10.648 29.956 29.956 0 0 0 49.3 0 24.657 24.657 0 0 1 20.289-10.645 24.658 24.658 0 0 1 23.859 18.445 184.508 184.508 0 0 1 1.55 86.476l-1.393 6.267a244.652 244.652 0 0 1 -13.959 43.312l-11.241 26.23a14.463 14.463 0 0 1 -13.29 8.767z" fill="#dbdbdb"/><path d="m316.29 280.363 1.393-6.267a184.5 184.5 0 0 0 -1.55-86.476 24.642 24.642 0 0 0 -19.4-18.016 24.513 24.513 0 0 0 -16.753 10.212 29.648 29.648 0 0 1 -28.648 12.467 29.648 29.648 0 0 1 -28.648-12.467 24.515 24.515 0 0 0 -16.753-10.216 24.641 24.641 0 0 0 -19.4 18.016 184.5 184.5 0 0 0 -1.55 86.476l1.392 6.267a244.784 244.784 0 0 0 13.96 43.314l11.241 26.229a14.446 14.446 0 0 0 9.211 8.161 14.421 14.421 0 0 0 10.546-13.859v-49.533a15.805 15.805 0 0 1 20-15.433 15.805 15.805 0 0 1 20 15.433v49.537a14.42 14.42 0 0 0 10.545 13.859 14.448 14.448 0 0 0 9.212-8.161l11.241-26.23a244.689 244.689 0 0 0 13.961-43.313z" fill="#ebebeb"/><path d="m271.992 231.993a7.965 7.965 0 0 1 -3.571-.844 27.9 27.9 0 0 0 -24.843 0 8 8 0 1 1 -7.157-14.313 44.019 44.019 0 0 1 39.157 0 8 8 0 0 1 -3.586 15.157z" fill="#dbdbdb"/><path d="m399.634 357.921a14.463 14.463 0 0 1 -9.468-18.131l14.834-47.263a16 16 0 0 0 -10.474-20.057 16 16 0 0 0 -20.057 10.474l-14.835 47.264a14.463 14.463 0 0 1 -18.13 9.468 14.464 14.464 0 0 1 -10.059-12.344l-2.871-28.392a244.793 244.793 0 0 1 -.348-45.506l.548-6.4a184.505 184.505 0 0 1 27.375-82.043 24.658 24.658 0 0 1 28.293-10.456 24.656 24.656 0 0 1 16.17 16.232 29.955 29.955 0 0 0 47.034 14.762 24.657 24.657 0 0 1 22.545-4.081 24.657 24.657 0 0 1 17.243 24.752 184.473 184.473 0 0 1 -24.417 82.971l-3.2 5.563a244.732 244.732 0 0 1 -26.289 37.145l-18.58 21.659a14.462 14.462 0 0 1 -15.314 4.383z" fill="#dbdbdb"/><path d="m470.42 181.544c-.079-.026-.149-.068-.229-.093a24.657 24.657 0 0 0 -22.545 4.081 29.915 29.915 0 0 1 -36.225.453 29.672 29.672 0 0 1 -18.312-19.215 24.5 24.5 0 0 0 -8.825-12.268 24.65 24.65 0 0 0 -28.135 10.492 184.513 184.513 0 0 0 -27.375 82.043l-.548 6.4a244.7 244.7 0 0 0 .348 45.505l2.871 28.393a14.319 14.319 0 0 0 4.29 8.7 14.416 14.416 0 0 0 16.4-9.826l14.834-47.264a16 16 0 0 1 20.057-10.474 15.825 15.825 0 0 1 6.214 3.734c.43.1.86.131 1.289.266a16 16 0 0 1 10.471 20.055l-14.834 47.264a14.4 14.4 0 0 0 3.478 14.371 14.365 14.365 0 0 0 13.8-4.623l18.58-21.659a244.732 244.732 0 0 0 26.289-37.145l3.206-5.563a184.5 184.5 0 0 0 24.413-82.971 24.63 24.63 0 0 0 -9.512-20.656z" fill="#efefef"/><path d="m423.109 225.438a44.029 44.029 0 0 1 -30.484-12.27 8 8 0 1 1 11.109-11.511 27.9 27.9 0 0 0 23.7 7.437 8 8 0 0 1 2.547 15.8 43.406 43.406 0 0 1 -6.872.544z" fill="#dbdbdb"/><path d="m136.539 358.585a14.463 14.463 0 0 1 -14.463-14.463v-49.537a16 16 0 0 0 -16-16 16 16 0 0 0 -16 16v49.537a14.463 14.463 0 0 1 -14.463 14.463 14.464 14.464 0 0 1 -13.294-8.765l-11.241-26.23a244.689 244.689 0 0 1 -13.959-43.313l-1.393-6.267a184.5 184.5 0 0 1 1.55-86.476 24.658 24.658 0 0 1 23.863-18.449 24.657 24.657 0 0 1 20.289 10.645 29.955 29.955 0 0 0 49.3 0 24.657 24.657 0 0 1 20.289-10.645 24.658 24.658 0 0 1 23.863 18.449 184.5 184.5 0 0 1 1.55 86.476l-1.392 6.267a244.692 244.692 0 0 1 -13.96 43.313l-11.241 26.23a14.464 14.464 0 0 1 -13.298 8.765z" fill="#dbdbdb"/><path d="m167.034 280.277 1.392-6.267a184.508 184.508 0 0 0 -1.55-86.476 24.643 24.643 0 0 0 -19.4-18.017 24.513 24.513 0 0 0 -16.753 10.213 29.652 29.652 0 0 1 -28.647 12.47 29.653 29.653 0 0 1 -28.648-12.47 24.518 24.518 0 0 0 -16.754-10.213 24.641 24.641 0 0 0 -19.4 18.017 184.5 184.5 0 0 0 -1.55 86.476l1.393 6.267a244.607 244.607 0 0 0 13.961 43.313l11.241 26.229a14.449 14.449 0 0 0 9.21 8.161 14.419 14.419 0 0 0 10.547-13.858v-49.537a15.805 15.805 0 0 1 20-15.434 15.805 15.805 0 0 1 20 15.434v49.537a14.419 14.419 0 0 0 10.547 13.858 14.447 14.447 0 0 0 9.21-8.161l11.241-26.229a244.774 244.774 0 0 0 13.96-43.313z" fill="#ebebeb"/><path d="m122.07 235.77a7.962 7.962 0 0 1 -3.571-.844 27.9 27.9 0 0 0 -24.844 0 8 8 0 1 1 -7.155-14.312 44.019 44.019 0 0 1 39.157 0 8 8 0 0 1 -3.586 15.156z" fill="#dbdbdb"/><path d="m488 407.993h-464v-128l172.716-23.823a495.961 495.961 0 0 1 118.811-2.019l172.473 17.842z" fill="#ffb1b4"/><path d="m328.1 255.451a244.65 244.65 0 0 0 .473 43.488l2.871 28.393a14.463 14.463 0 0 0 28.189 2.876l14.835-47.264a16 16 0 0 1 30.532 9.582l-14.834 47.264a14.463 14.463 0 0 0 24.777 13.748l18.58-21.659a244.732 244.732 0 0 0 26.289-37.145l3.2-5.563a184.2 184.2 0 0 0 9.42-18.788z" fill="#dc989b"/><path d="m332.8 331.962a14.4 14.4 0 0 0 .99 1.654 15.778 15.778 0 0 0 1.949 2.418 14.416 14.416 0 0 0 16.4-9.826l14.834-47.264a16 16 0 0 1 20.057-10.474 15.824 15.824 0 0 1 6.213 3.733c.43.1.861.132 1.29.267a16 16 0 0 1 10.467 20.056l-14.834 47.264a14.1 14.1 0 0 0 -.595 3.583c-.016.287-.005.571 0 .857a14.208 14.208 0 0 0 .349 3.077c.027.118.04.239.07.355a14.669 14.669 0 0 0 3.656 6.5 14.364 14.364 0 0 0 13.8-4.623l18.58-21.659a244.732 244.732 0 0 0 26.289-37.145l3.206-5.563c2.943-5.107 5.563-10.371 7.994-15.712l-135.415-14.009q-.839 10.838-.731 21.708c0 .38.03.761.035 1.141.048 3.221.141 6.443.317 9.661q.308 5.5.852 10.978l2.871 28.393a14.3 14.3 0 0 0 .862 3.4c.158.416.294.836.494 1.23z" fill="#eba2a5"/><path d="m315.527 254.15a496.064 496.064 0 0 0 -118.811 2.019l-14.348 1.979c.689 5.032 1.508 10.051 2.615 15.028l1.392 6.267a244.758 244.758 0 0 0 13.96 43.314l11.241 26.229a14.463 14.463 0 0 0 27.757-5.7v-49.534a16 16 0 0 1 32 0v49.537a14.463 14.463 0 0 0 27.757 5.7l11.241-26.23a244.662 244.662 0 0 0 13.959-43.313l1.393-6.266c1.3-5.849 2.237-11.75 2.96-17.67z" fill="#dc989b"/><path d="m315.527 254.15a496.064 496.064 0 0 0 -118.811 2.019l-14.348 1.979c.689 5.032 1.508 10.051 2.615 15.028l1.392 6.267a244.758 244.758 0 0 0 13.96 43.314l11.241 26.229a14.346 14.346 0 0 0 10.71 8.383 14.262 14.262 0 0 0 9.047-13.161v-49.537a16 16 0 0 1 16-16 13.264 13.264 0 0 1 1.965.278 15.969 15.969 0 0 1 22.035 14.8v49.537a14.323 14.323 0 0 0 .232 2.293c.03.314.1.61.154.917a14.436 14.436 0 0 0 11.529 11 14.35 14.35 0 0 0 7.842-7.59l11.241-26.229a244.689 244.689 0 0 0 13.959-43.313l1.393-6.267a184.2 184.2 0 0 0 3.184-19.393z" fill="#f1a6a9"/><path d="m136.539 358.585a14.463 14.463 0 0 0 13.294-8.766l11.241-26.229a244.774 244.774 0 0 0 13.96-43.313l1.392-6.267c1.134-5.1 1.969-10.25 2.664-15.409l-142.423 19.644.452 2.032a244.607 244.607 0 0 0 13.959 43.313l11.241 26.229a14.463 14.463 0 0 0 27.757-5.7v-49.534a16 16 0 0 1 32 0v49.537a14.463 14.463 0 0 0 14.463 14.463z" fill="#dc989b"/><path d="m122.8 348.421c.07.225.128.454.209.673a14.266 14.266 0 0 0 1.991 3.668c.072.1.154.183.228.277a14.557 14.557 0 0 0 7.392 4.941 14.447 14.447 0 0 0 9.21-8.161l11.241-26.229a244.774 244.774 0 0 0 13.96-43.313l1.392-6.267c1.052-4.733 1.844-9.5 2.518-14.286l-134.274 18.521.452 2.032a244.607 244.607 0 0 0 13.959 43.313l11.241 26.229a14.357 14.357 0 0 0 2 3.248c.249.313.531.59.8.88a14.3 14.3 0 0 0 1.941 1.726c.349.257.691.521 1.061.745a14.372 14.372 0 0 0 2.7 1.268c.241.085.459.221.7.294a14.419 14.419 0 0 0 10.547-13.858v-49.537a15.805 15.805 0 0 1 20-15.434 15.805 15.805 0 0 1 20 15.434v49.537a14.178 14.178 0 0 0 .732 4.299z" fill="#f1a6a9"/><path d="m344 144a7.971 7.971 0 0 1 -2.532-.414l-24-8a8 8 0 0 1 5.063-15.179l24 8a8 8 0 0 1 -2.531 15.593z" fill="#fcd795"/><path d="m368 120a8 8 0 0 1 -7.586-5.472l-8-24a8 8 0 1 1 15.172-5.063l8 24a8.006 8.006 0 0 1 -7.586 10.535z" fill="#fcd795"/><path d="m401.976 134.871a8 8 0 0 1 -5.656-13.656l24-24a8 8 0 1 1 11.313 11.313l-24 24a7.978 7.978 0 0 1 -5.657 2.343z" fill="#fcd795"/><g fill="#f0a5a8"><path d="m175.999 359.993h16v16h-16z"/><path d="m248 367.993h16v16h-16z"/><path d="m328 359.993h16v16h-16z"/><path d="m440 359.993h16v16h-16z"/><path d="m95.999 367.993h16v16h-16z"/></g><path d="m23.999 399.152h464.001v8.841h-464.001z" fill="#f6a9ac"/></svg>