<svg id="Capa_1" enable-background="new 0 0 512.501 512.501" height="512" viewBox="0 0 512.501 512.501" width="512" xmlns="http://www.w3.org/2000/svg"><g clip-rule="evenodd" fill-rule="evenodd"><path d="m416.408 18.828c1.975-8.045-2.945-16.169-10.99-18.145-8.044-1.976-16.169 2.945-18.145 10.99-3.291 13.403-5.922 26.085-7.987 38.134-85.934-19.439-162.827-19.917-246.261-1.45-2.026-11.616-4.576-23.818-7.735-36.685-1.976-8.045-10.102-12.964-18.145-10.99-8.045 1.977-12.965 10.1-10.99 18.146 25.411 103.484 9.538 158.988-5.812 212.664-12.556 43.907-25.54 89.309-13.45 156.24 6.242 34.558 12.248 61.294 37.828 115.884 2.551 5.444 7.953 8.639 13.592 8.639 2.131 0 4.297-.457 6.355-1.421 7.501-3.515 10.733-12.446 7.218-19.947-24.094-51.419-29.474-75.287-35.471-108.486-1.33-7.363-2.32-14.423-3.019-21.228l137.887 58.041c0 .013-.002.025-.002.038v78c0 8.284 6.716 15 15 15s15-6.716 15-15v-78c0-.029-.004-.057-.004-.086l137.972-58.811c-.702 7.056-1.719 14.387-3.102 22.046-5.997 33.199-11.376 57.067-35.471 108.486-3.515 7.501-.284 16.432 7.218 19.947 2.058.964 4.223 1.421 6.355 1.421 5.639 0 11.042-3.195 13.592-8.639 25.581-54.59 31.586-81.326 37.828-115.884 12.089-66.931-.894-112.333-13.45-156.24-15.349-53.676-31.222-109.18-5.811-212.664zm-160.163 374.133-154.028-64.835c.68-20.464 3.959-38.775 8.301-56.521 44.66 16.843 94.888 25.729 145.764 25.729 50.919 0 101.096-8.873 145.766-25.721 4.282 17.5 7.534 35.549 8.274 55.672zm118.917-313.315c-7.325 70.761 6.069 117.628 18.213 160.094.262.916.523 1.829.784 2.743-41.978 16.256-89.5 24.85-137.878 24.85-48.335 0-95.91-8.6-137.878-24.851.261-.913.522-1.827.784-2.742 12.229-42.766 25.733-89.987 18.061-161.585 80.617-18.147 154.719-17.65 237.914 1.491z"/><path d="m25.888 106.487c-5.857-5.858-15.355-5.858-21.213 0s-5.858 15.355 0 21.213l27.331 27.332-27.613 27.612c-5.858 5.857-5.858 15.355 0 21.213 2.929 2.929 6.767 4.394 10.606 4.394 3.838 0 7.678-1.465 10.606-4.394l38.22-38.219c2.813-2.813 4.394-6.628 4.394-10.606s-1.581-7.793-4.394-10.606z"/><path d="m508.107 182.644-27.613-27.613 27.331-27.332c5.858-5.858 5.858-15.355 0-21.213-5.857-5.858-15.355-5.858-21.213 0l-37.938 37.938c-2.813 2.813-4.394 6.628-4.394 10.606 0 3.979 1.581 7.793 4.394 10.606l38.22 38.219c2.929 2.929 6.768 4.394 10.606 4.394s7.678-1.464 10.606-4.394c5.859-5.856 5.859-15.353.001-21.211z"/><path d="m256.281 236.251c8.262 0 15-6.738 15-15s-6.738-15-15-15-15 6.738-15 15 6.739 15 15 15z"/></g></svg>